Coordinates
version=1
nRows=11
nColumns=26
inDegrees=yes

Units are S.I. units (second, meters, Newtons, ...)
Angles are in degrees.

endheader
time	pelvis_tilt	pelvis_list	pelvis_rotation	pelvis_tx	pelvis_ty	pelvis_tz	hip_flexion_r	hip_adduction_r	hip_rotation_r	knee_angle_r	knee_angle_r_beta	ankle_angle_r	subtalar_angle_r	mtp_angle_r	hip_flexion_l	hip_adduction_l	hip_rotation_l	knee_angle_l	knee_angle_l_beta	ankle_angle_l	subtalar_angle_l	mtp_angle_l	lumbar_extension	lumbar_bending	lumbar_rotation
      1.20666667	     -3.56077317	      1.81825687	      1.96920577	      2.55088695	      0.95500908	      1.18653877	     15.28464192	    -11.08928016	     -9.33909258	     58.28220412	      1.01721636	      6.73533499	    -11.40386315	      0.00000000	      8.95114224	      4.22711195	      2.13742128	      7.77115993	      0.13563233	      4.83806229	    -17.42034553	      0.00000000	      0.00000000	      0.00000000	      0.00000000
      1.21333333	     -3.37922348	      1.62343235	      2.07656159	      2.55042864	      0.95551737	      1.18608219	     15.66997443	    -10.86702710	     -9.41087484	     58.46245841	      1.02036239	      7.29771574	    -12.01670103	      0.00000000	      8.68951946	      4.01064423	      1.83426565	      8.00799133	      0.13976582	      5.36573252	    -16.74732054	      0.00000000	      0.00000000	      0.00000000	      0.00000000
      1.22000000	     -3.19997486	      1.48777338	      2.23172860	      2.54997932	      0.95605514	      1.18542280	     16.06490350	    -10.74016793	     -9.45440167	     58.60168867	      1.02279241	      7.45404783	    -12.12704826	      0.00000000	      8.32403092	      3.91001683	      1.87903251	      8.02616658	      0.14008303	      5.37088897	    -16.75640608	      0.00000000	      0.00000000	      0.00000000	      0.00000000
      1.22666667	     -3.08844633	      1.33257182	      2.31719248	      2.54949111	      0.95646602	      1.18503320	     16.52549062	    -10.51262458	     -9.43208644	     58.64234144	      1.02350194	      8.05880833	    -12.64910977	      0.00000000	      7.95493896	      3.76848376	      2.05750648	      7.91174279	      0.13808596	      5.54933781	    -16.76125080	      0.00000000	      0.00000000	      0.00000000	      0.00000000
      1.23333333	     -2.92692835	      1.19735786	      2.43896407	      2.54897532	      0.95688173	      1.18451845	     16.94802470	    -10.39315525	     -9.52776025	     58.68266694	      1.02420575	      8.29702868	    -12.86939865	      0.00000000	      7.59025564	      3.65028299	      2.07816776	      7.89816432	      0.13784897	      5.61957741	    -16.76132806	      0.00000000	      0.00000000	      0.00000000	      0.00000000
      1.24000000	     -2.85450151	      1.03104246	      2.53917212	      2.54850279	      0.95721650	      1.18412927	     17.40600383	    -10.12830381	     -9.50410811	     58.55124255	      1.02191196	      8.85825574	    -13.40574356	      0.00000000	      7.26310427	      3.49554094	      2.17689255	      7.76435882	      0.13551363	      5.79875320	    -16.71494067	      0.00000000	      0.00000000	      0.00000000	      0.00000000
      1.24666667	     -2.70515494	      0.90751316	      2.65424984	      2.54798941	      0.95768064	      1.18372831	     17.76717280	     -9.92574253	     -9.49359488	     58.34889505	      1.01838033	      9.21736130	    -14.21491739	      0.00000000	      6.87512063	      3.38142208	      2.33647505	      7.69383740	      0.13428279	      6.01381832	    -16.59135669	      0.00000000	      0.00000000	      0.00000000	      0.00000000
      1.25333333	     -2.64490366	      0.78974687	      2.72473417	      2.54750553	      0.95794386	      1.18338861	     18.23729666	     -9.73056963	     -9.46610618	     58.10905509	      1.01419434	      9.60998766	    -14.65412434	      0.00000000	      6.55594110	      3.26767138	      2.33589923	      7.56968645	      0.13211595	      6.12262413	    -16.51823387	      0.00000000	      0.00000000	      0.00000000	      0.00000000
      1.26000000	     -2.56739438	      0.66490397	      2.77901252	      2.54703567	      0.95825035	      1.18310468	     18.68283169	     -9.48942972	     -9.39932667	     57.79128401	      1.00864818	      9.83829171	    -15.51887330	      0.00000000	      6.21443392	      3.13141556	      2.30166327	      7.44733820	      0.12998057	      6.33402290	    -16.22101458	      0.00000000	      0.00000000	      0.00000000	      0.00000000
      1.26666667	     -2.52663639	      0.56994346	      2.81286686	      2.54659895	      0.95843738	      1.18286050	     19.15554036	     -9.30977551	     -9.35134121	     57.44251838	      1.00256108	     10.34882972	    -15.90165520	      0.00000000	      5.88621318	      3.03197001	      2.28630071	      7.27466092	      0.12696678	      6.50996381	    -16.10052554	      0.00000000	      0.00000000	      0.00000000	      0.00000000
      1.27333333	     -2.50987104	      0.47558115	      2.87760451	      2.54613417	      0.95859564	      1.18253161	     19.61283024	     -9.10459259	     -9.29629786	     56.96895153	      0.99429578	     10.47831310	    -16.39047404	      0.00000000	      5.56288783	      2.94873325	      2.39747623	      7.05393080	      0.12311432	      6.69581225	    -15.77003644	      0.00000000	      0.00000000	      0.00000000	      0.00000000
